<?xml version="1.0" standalone="no"?>
<!DOCTYPE svg PUBLIC "-//W3C//DTD SVG 20010904//EN"
 "http://www.w3.org/TR/2001/REC-SVG-20010904/DTD/svg10.dtd">
<svg version="1.0" xmlns="http://www.w3.org/2000/svg"
 width="150.000000pt" height="150.000000pt" viewBox="0 0 150.000000 150.000000"
 preserveAspectRatio="xMidYMid meet">
<metadata>
Created by potrace 1.11, written by Peter Selinger 2001-2013
</metadata>
<g transform="translate(0.000000,150.000000) scale(0.100000,-0.100000)"
fill="#000000" stroke="none">
<path d="M646 1328 c-20 -30 -88 -373 -90 -449 0 -32 5 -63 12 -71 6 -8 42
-23 78 -33 55 -15 72 -16 106 -6 26 8 44 9 50 3 16 -16 -9 -51 -40 -58 -53
-12 -62 -16 -62 -27 0 -21 13 -32 93 -86 42 -28 77 -58 77 -67 0 -25 -28 -27
-62 -6 -44 28 -88 44 -88 33 0 -5 22 -36 50 -68 53 -62 60 -80 34 -90 -12 -4
-34 12 -73 52 -47 49 -56 55 -59 38 -2 -11 6 -46 17 -78 22 -62 20 -75 -8 -75
-13 0 -24 17 -41 63 -35 98 -50 103 -55 17 -3 -56 -7 -65 -28 -57 -10 4 -16
26 -19 64 -3 47 -11 69 -38 106 -34 48 -48 101 -50 192 -1 65 -27 121 -77 166
-48 43 -102 63 -148 55 -69 -13 -69 -44 0 -126 56 -66 82 -132 101 -250 20
-126 45 -179 113 -243 98 -92 214 -121 327 -83 83 28 137 76 207 184 76 117
123 160 217 196 117 46 156 96 117 151 -17 22 -36 19 -143 -29 -44 -20 -102
-39 -127 -42 -45 -6 -47 -6 -47 17 0 18 33 56 125 144 108 103 125 124 125
151 0 35 -26 64 -59 64 -14 0 -53 -30 -109 -84 -108 -103 -172 -150 -186 -136
-7 7 17 63 73 176 89 179 94 204 49 237 l-28 21 -27 -20 c-16 -12 -57 -74 -93
-142 -77 -143 -102 -178 -118 -168 -16 9 -16 163 -1 255 15 87 1 124 -48 129
-24 2 -35 -2 -47 -20z"/>
</g>
</svg>
